<mxfile host="app.diagrams.net" agent="Mozilla/5.0 (Windows NT 10.0; Win64; x64) AppleWebKit/537.36 (KHTML, like Gecko) Chrome/133.0.0.0 Safari/537.36 Edg/133.0.0.0" version="26.0.15">
  <diagram name="Página-1" id="yZPRYXATl8zj2Kmg_hPs">
    <mxGraphModel dx="1426" dy="747" grid="1" gridSize="10" guides="1" tooltips="1" connect="1" arrows="1" fold="1" page="1" pageScale="1" pageWidth="827" pageHeight="1169" math="0" shadow="0">
      <root>
        <mxCell id="0" />
        <mxCell id="1" parent="0" />
        <mxCell id="cT6T6MAE-uouMC9PFB4L-5" style="edgeStyle=orthogonalEdgeStyle;rounded=0;orthogonalLoop=1;jettySize=auto;html=1;exitX=1;exitY=0.5;exitDx=0;exitDy=0;" edge="1" parent="1" source="cT6T6MAE-uouMC9PFB4L-1" target="cT6T6MAE-uouMC9PFB4L-2">
          <mxGeometry relative="1" as="geometry" />
        </mxCell>
        <mxCell id="cT6T6MAE-uouMC9PFB4L-1" value="Inicio" style="ellipse;whiteSpace=wrap;html=1;aspect=fixed;fillColor=#008a00;fontColor=#ffffff;strokeColor=#005700;" vertex="1" parent="1">
          <mxGeometry x="70" y="50" width="50" height="50" as="geometry" />
        </mxCell>
        <mxCell id="cT6T6MAE-uouMC9PFB4L-6" style="edgeStyle=orthogonalEdgeStyle;rounded=0;orthogonalLoop=1;jettySize=auto;html=1;exitX=0.5;exitY=1;exitDx=0;exitDy=0;" edge="1" parent="1" source="cT6T6MAE-uouMC9PFB4L-2" target="cT6T6MAE-uouMC9PFB4L-3">
          <mxGeometry relative="1" as="geometry" />
        </mxCell>
        <mxCell id="cT6T6MAE-uouMC9PFB4L-2" value="Digite um número" style="shape=parallelogram;perimeter=parallelogramPerimeter;whiteSpace=wrap;html=1;fixedSize=1;fillColor=#1ba1e2;fontColor=#ffffff;strokeColor=#006EAF;" vertex="1" parent="1">
          <mxGeometry x="170" y="45" width="120" height="60" as="geometry" />
        </mxCell>
        <mxCell id="cT6T6MAE-uouMC9PFB4L-12" style="edgeStyle=orthogonalEdgeStyle;rounded=0;orthogonalLoop=1;jettySize=auto;html=1;exitX=0;exitY=0.5;exitDx=0;exitDy=0;entryX=0.25;entryY=0;entryDx=0;entryDy=0;" edge="1" parent="1" source="cT6T6MAE-uouMC9PFB4L-3" target="cT6T6MAE-uouMC9PFB4L-4">
          <mxGeometry relative="1" as="geometry" />
        </mxCell>
        <mxCell id="cT6T6MAE-uouMC9PFB4L-13" value="SIM" style="edgeLabel;html=1;align=center;verticalAlign=middle;resizable=0;points=[];" vertex="1" connectable="0" parent="cT6T6MAE-uouMC9PFB4L-12">
          <mxGeometry x="0.4316" y="-1" relative="1" as="geometry">
            <mxPoint as="offset" />
          </mxGeometry>
        </mxCell>
        <mxCell id="cT6T6MAE-uouMC9PFB4L-14" style="edgeStyle=orthogonalEdgeStyle;rounded=0;orthogonalLoop=1;jettySize=auto;html=1;exitX=1;exitY=0.5;exitDx=0;exitDy=0;entryX=0.75;entryY=0;entryDx=0;entryDy=0;" edge="1" parent="1" source="cT6T6MAE-uouMC9PFB4L-3" target="cT6T6MAE-uouMC9PFB4L-9">
          <mxGeometry relative="1" as="geometry" />
        </mxCell>
        <mxCell id="cT6T6MAE-uouMC9PFB4L-3" value="o resto da divisão do número por 2 é = 0?" style="rhombus;whiteSpace=wrap;html=1;fillColor=#f0a30a;fontColor=#000000;strokeColor=#BD7000;" vertex="1" parent="1">
          <mxGeometry x="155" y="140" width="150" height="150" as="geometry" />
        </mxCell>
        <mxCell id="cT6T6MAE-uouMC9PFB4L-17" style="edgeStyle=orthogonalEdgeStyle;rounded=0;orthogonalLoop=1;jettySize=auto;html=1;exitX=0;exitY=0.75;exitDx=0;exitDy=0;entryX=0;entryY=0.5;entryDx=0;entryDy=0;" edge="1" parent="1" source="cT6T6MAE-uouMC9PFB4L-4" target="cT6T6MAE-uouMC9PFB4L-15">
          <mxGeometry relative="1" as="geometry" />
        </mxCell>
        <mxCell id="cT6T6MAE-uouMC9PFB4L-4" value="Escreva:&lt;div&gt;O número é par&lt;/div&gt;" style="shape=document;whiteSpace=wrap;html=1;boundedLbl=1;fillColor=#76608a;fontColor=#ffffff;strokeColor=#432D57;" vertex="1" parent="1">
          <mxGeometry x="70" y="350" width="120" height="80" as="geometry" />
        </mxCell>
        <mxCell id="cT6T6MAE-uouMC9PFB4L-16" style="edgeStyle=orthogonalEdgeStyle;rounded=0;orthogonalLoop=1;jettySize=auto;html=1;exitX=1;exitY=0.75;exitDx=0;exitDy=0;entryX=1;entryY=0.5;entryDx=0;entryDy=0;" edge="1" parent="1" source="cT6T6MAE-uouMC9PFB4L-9" target="cT6T6MAE-uouMC9PFB4L-15">
          <mxGeometry relative="1" as="geometry" />
        </mxCell>
        <mxCell id="cT6T6MAE-uouMC9PFB4L-9" value="Escreva:&lt;div&gt;O número é impar&lt;/div&gt;" style="shape=document;whiteSpace=wrap;html=1;boundedLbl=1;fillColor=#76608a;fontColor=#ffffff;strokeColor=#432D57;" vertex="1" parent="1">
          <mxGeometry x="270" y="350" width="120" height="80" as="geometry" />
        </mxCell>
        <mxCell id="cT6T6MAE-uouMC9PFB4L-15" value="Fim" style="ellipse;whiteSpace=wrap;html=1;aspect=fixed;fillColor=#e51400;fontColor=#ffffff;strokeColor=#B20000;" vertex="1" parent="1">
          <mxGeometry x="210" y="490" width="50" height="50" as="geometry" />
        </mxCell>
        <mxCell id="cT6T6MAE-uouMC9PFB4L-25" style="edgeStyle=orthogonalEdgeStyle;rounded=0;orthogonalLoop=1;jettySize=auto;html=1;exitX=1;exitY=0.5;exitDx=0;exitDy=0;" edge="1" parent="1" source="cT6T6MAE-uouMC9PFB4L-18" target="cT6T6MAE-uouMC9PFB4L-19">
          <mxGeometry relative="1" as="geometry" />
        </mxCell>
        <mxCell id="2" value="" style="shape=stencil(fZbdcgIhDIWfZm8zQAg/17Z9j85U606tdqz9e/tmZ0c0uJ47xP0I5JwEBl59bp8/1kNwn6fj4W39M76ctgM/DCGM++36OJ50NPDjwKvN4bh+PR6+9i/z74/n6ctp9H74nlb4nbmSKZeJCu5vngmZ6jzzNAO7cX8FVKEsBuBKrgKg9oAE8gkCbLeUhEoEQKSUDZDLeWYRKIl8MEDRmHwfyBrBG6Amyu4+kDxxMoB3jhwgYu7TVAsVkFcWCs4CTBEoF4RctKeOxHIf8IXYpikHikAIf+MNUW94AGSSaoAoFIE3AlOyeWU+p2E5S9yfQZcQILVuQOwZdJNoS9Ls3wA5u2XZTIHECqeJ9kDpSaauRiNVcAY1QhdBzeLBli5WazpkSsBLV25uRaqWRyFawTQzRRIQYirJzq5atkBqLfouwqUxLBepthWb10vrWZY6UOAeyKCCtDV625mm9gmUC4Wc3VLJMMIE1BsA2FW9JraVlQB7n3c9oMKhCLEvIM1zBPZ25/umNQ1tVEC2G+fFCC8g398O2hNQuQlVu752DBfA+q0ptnqO5JFmeuIuo9DY7KjY71UxdJV4EntifPWorW++R/dC4t7V3DlIB5cHx2bc7eb3yvX//QNFp+bHDT/+Aw==);lineShape=1;strokeColor=default;" vertex="1" parent="1">
          <mxGeometry x="838.8679608424757" y="227.87531245851915" width="4.672539772115442" height="4.665236216357698" as="geometry" />
        </mxCell>
        <mxCell id="cT6T6MAE-uouMC9PFB4L-18" value="Inicio" style="ellipse;whiteSpace=wrap;html=1;aspect=fixed;fillColor=#008a00;fontColor=#ffffff;strokeColor=#005700;" vertex="1" parent="1">
          <mxGeometry x="480" y="40" width="50" height="50" as="geometry" />
        </mxCell>
        <mxCell id="cT6T6MAE-uouMC9PFB4L-26" style="edgeStyle=orthogonalEdgeStyle;rounded=0;orthogonalLoop=1;jettySize=auto;html=1;exitX=0.5;exitY=1;exitDx=0;exitDy=0;" edge="1" parent="1" source="cT6T6MAE-uouMC9PFB4L-19" target="cT6T6MAE-uouMC9PFB4L-20">
          <mxGeometry relative="1" as="geometry" />
        </mxCell>
        <mxCell id="cT6T6MAE-uouMC9PFB4L-19" value="Informe um&amp;nbsp;&lt;div&gt;número&lt;/div&gt;" style="shape=parallelogram;perimeter=parallelogramPerimeter;whiteSpace=wrap;html=1;fixedSize=1;fillColor=#1ba1e2;fontColor=#ffffff;strokeColor=#006EAF;" vertex="1" parent="1">
          <mxGeometry x="550" y="35" width="120" height="60" as="geometry" />
        </mxCell>
        <mxCell id="cT6T6MAE-uouMC9PFB4L-27" style="edgeStyle=orthogonalEdgeStyle;rounded=0;orthogonalLoop=1;jettySize=auto;html=1;exitX=0;exitY=0.75;exitDx=0;exitDy=0;" edge="1" parent="1" source="cT6T6MAE-uouMC9PFB4L-20" target="cT6T6MAE-uouMC9PFB4L-21">
          <mxGeometry relative="1" as="geometry" />
        </mxCell>
        <mxCell id="cT6T6MAE-uouMC9PFB4L-20" value="resto = numero / 2" style="shape=document;whiteSpace=wrap;html=1;boundedLbl=1;fillColor=#76608a;fontColor=#ffffff;strokeColor=#432D57;" vertex="1" parent="1">
          <mxGeometry x="550" y="140" width="120" height="80" as="geometry" />
        </mxCell>
        <mxCell id="cT6T6MAE-uouMC9PFB4L-28" style="edgeStyle=orthogonalEdgeStyle;rounded=0;orthogonalLoop=1;jettySize=auto;html=1;exitX=1;exitY=0.5;exitDx=0;exitDy=0;" edge="1" parent="1" source="cT6T6MAE-uouMC9PFB4L-21" target="cT6T6MAE-uouMC9PFB4L-22">
          <mxGeometry relative="1" as="geometry" />
        </mxCell>
        <mxCell id="cT6T6MAE-uouMC9PFB4L-33" value="SIM" style="edgeLabel;html=1;align=center;verticalAlign=middle;resizable=0;points=[];" vertex="1" connectable="0" parent="cT6T6MAE-uouMC9PFB4L-28">
          <mxGeometry x="-0.1667" y="-2" relative="1" as="geometry">
            <mxPoint as="offset" />
          </mxGeometry>
        </mxCell>
        <mxCell id="cT6T6MAE-uouMC9PFB4L-29" style="edgeStyle=orthogonalEdgeStyle;rounded=0;orthogonalLoop=1;jettySize=auto;html=1;exitX=0.5;exitY=1;exitDx=0;exitDy=0;" edge="1" parent="1" source="cT6T6MAE-uouMC9PFB4L-21" target="cT6T6MAE-uouMC9PFB4L-23">
          <mxGeometry relative="1" as="geometry" />
        </mxCell>
        <mxCell id="cT6T6MAE-uouMC9PFB4L-32" value="NÃO" style="edgeLabel;html=1;align=center;verticalAlign=middle;resizable=0;points=[];" vertex="1" connectable="0" parent="cT6T6MAE-uouMC9PFB4L-29">
          <mxGeometry x="-0.4333" y="-2" relative="1" as="geometry">
            <mxPoint as="offset" />
          </mxGeometry>
        </mxCell>
        <mxCell id="cT6T6MAE-uouMC9PFB4L-21" value="resto == 0" style="rhombus;whiteSpace=wrap;html=1;fillColor=#f0a30a;fontColor=#000000;strokeColor=#BD7000;" vertex="1" parent="1">
          <mxGeometry x="530" y="260" width="80" height="80" as="geometry" />
        </mxCell>
        <mxCell id="cT6T6MAE-uouMC9PFB4L-31" style="edgeStyle=orthogonalEdgeStyle;rounded=0;orthogonalLoop=1;jettySize=auto;html=1;exitX=0.5;exitY=1;exitDx=0;exitDy=0;" edge="1" parent="1" source="cT6T6MAE-uouMC9PFB4L-22" target="cT6T6MAE-uouMC9PFB4L-24">
          <mxGeometry relative="1" as="geometry" />
        </mxCell>
        <mxCell id="cT6T6MAE-uouMC9PFB4L-22" value="número é par" style="shape=parallelogram;perimeter=parallelogramPerimeter;whiteSpace=wrap;html=1;fixedSize=1;fillColor=#1ba1e2;fontColor=#ffffff;strokeColor=#006EAF;" vertex="1" parent="1">
          <mxGeometry x="660" y="270" width="120" height="60" as="geometry" />
        </mxCell>
        <mxCell id="cT6T6MAE-uouMC9PFB4L-30" style="edgeStyle=orthogonalEdgeStyle;rounded=0;orthogonalLoop=1;jettySize=auto;html=1;exitX=1;exitY=0.5;exitDx=0;exitDy=0;" edge="1" parent="1" source="cT6T6MAE-uouMC9PFB4L-23" target="cT6T6MAE-uouMC9PFB4L-24">
          <mxGeometry relative="1" as="geometry" />
        </mxCell>
        <mxCell id="cT6T6MAE-uouMC9PFB4L-23" value="numero é impar" style="shape=parallelogram;perimeter=parallelogramPerimeter;whiteSpace=wrap;html=1;fixedSize=1;fillColor=#1ba1e2;fontColor=#ffffff;strokeColor=#006EAF;" vertex="1" parent="1">
          <mxGeometry x="510" y="400" width="120" height="60" as="geometry" />
        </mxCell>
        <mxCell id="cT6T6MAE-uouMC9PFB4L-24" value="Fim" style="ellipse;whiteSpace=wrap;html=1;aspect=fixed;fillColor=#e51400;fontColor=#ffffff;strokeColor=#B20000;" vertex="1" parent="1">
          <mxGeometry x="710" y="400" width="50" height="50" as="geometry" />
        </mxCell>
      </root>
    </mxGraphModel>
  </diagram>
</mxfile>
